<?xml version="1.0" standalone="no"?>
<!DOCTYPE svg PUBLIC "-//W3C//DTD SVG 20010904//EN"
 "http://www.w3.org/TR/2001/REC-SVG-20010904/DTD/svg10.dtd">
<svg version="1.0" xmlns="http://www.w3.org/2000/svg"
 width="512.000000pt" height="512.000000pt" viewBox="0 0 512.000000 512.000000"
 preserveAspectRatio="xMidYMid meet">
<metadata>
Created by potrace 1.11, written by Peter Selinger 2001-2013
</metadata>
<g transform="translate(0.000000,512.000000) scale(0.100000,-0.100000)"
fill="#000000" stroke="none">
<path d="M820 4938 c-114 -44 -189 -163 -177 -279 6 -55 27 -119 39 -119 4 0
8 -6 8 -13 0 -19 59 -72 110 -98 40 -20 64 -24 205 -29 170 -6 207 -15 240
-62 15 -23 15 -23 -59 -48 -40 -14 -80 -30 -87 -35 -8 -6 -27 -17 -43 -25 -16
-8 -60 -45 -96 -82 l-67 -68 -197 0 c-117 0 -216 -5 -244 -12 -87 -22 -160
-87 -195 -174 -19 -50 -16 -153 6 -204 20 -45 84 -120 103 -120 8 0 14 -4 14
-8 0 -19 80 -37 217 -47 122 -8 225 -57 310 -147 85 -91 123 -182 129 -309 6
-146 -44 -268 -151 -368 -107 -100 -193 -128 -400 -131 -171 -2 -182 -3 -236
-27 -67 -30 -109 -71 -140 -137 -88 -186 51 -395 264 -396 99 -1 169 -53 183
-138 8 -53 -10 -105 -49 -138 -42 -35 -64 -43 -142 -45 -156 -5 -275 -116
-281 -262 -5 -114 47 -207 144 -260 44 -24 68 -29 169 -36 126 -9 166 -22 209
-68 59 -63 31 -190 -51 -236 -11 -6 -76 -14 -145 -17 -145 -8 -184 -23 -256
-97 -105 -108 -92 -299 28 -396 88 -72 -25 -67 1609 -67 1089 0 1482 3 1517
12 132 33 222 160 208 293 -6 64 -20 98 -63 152 -50 63 -111 93 -213 102 -140
13 -195 58 -195 162 0 46 5 63 29 94 52 68 17 65 830 65 712 0 737 1 789 20
195 73 248 307 102 455 -65 67 -121 84 -270 86 -60 1 -134 8 -164 15 -348 91
-477 525 -233 787 87 92 188 143 305 152 182 14 218 26 285 93 58 58 77 105
76 192 0 116 -49 197 -154 251 -45 24 -48 24 -430 28 l-385 3 71 17 c39 10
100 34 137 55 72 40 177 139 201 191 9 18 21 37 28 43 8 6 92 12 213 14 190 3
203 4 248 28 55 28 96 71 129 133 17 32 22 59 22 117 1 122 -54 204 -169 255
-46 21 -66 23 -265 24 l-214 2 -68 69 c-50 50 -89 79 -145 106 -43 21 -80 39
-82 41 -7 5 50 73 72 85 16 9 104 15 307 18 320 6 324 7 406 87 54 52 77 105
79 183 2 63 -20 150 -37 150 -4 0 -8 6 -8 14 0 23 -83 89 -135 108 -44 17
-163 18 -1894 17 l-1846 0 -55 -21z"/>
</g>
</svg>
